<svg width="17" height="19" viewBox="0 0 17 19" fill="none" xmlns="http://www.w3.org/2000/svg">
<path id="Vector" d="M14.9108 17.1242L14.9107 17.1241L14.8676 17.164C14.8673 17.1642 14.867 17.1645 14.8667 17.1648C14.1374 17.8717 13.144 18.3078 12.05 18.3078C10.9319 18.3078 9.91905 17.854 9.18679 17.1214C8.45416 16.3891 8.00034 15.3759 8.00034 14.2578C8.00034 13.1398 8.45416 12.1269 9.18676 11.3946C9.18677 11.3946 9.18678 11.3946 9.18679 11.3946M14.9108 17.1242L14.8401 11.4653C14.1252 10.7507 13.1388 10.3082 12.05 10.3082C10.9595 10.3082 9.97177 10.7507 9.25748 11.4653L9.18679 11.3946M14.9108 17.1242L14.9136 17.1214C15.6462 16.3891 16.1 15.3759 16.1 14.2578C16.1 13.1401 15.6462 12.1269 14.9108 11.3946L14.9108 17.1242ZM9.18679 11.3946C9.91905 10.662 10.9319 10.2082 12.05 10.2082C13.1664 10.2082 14.1778 10.662 14.9107 11.3944L9.18679 11.3946ZM10.8816 13.6128L10.8811 13.6123C10.839 13.5719 10.8202 13.5694 10.8168 13.5693H10.8167C10.8157 13.5692 10.7995 13.5688 10.7614 13.6082L10.7614 13.6082L10.1515 14.2399L10.1508 14.2407C10.1211 14.2707 10.1166 14.2891 10.1161 14.296C10.1158 14.3006 10.116 14.3138 10.1377 14.3381L11.3889 15.5818L11.3889 15.5819C11.4084 15.6013 11.4264 15.6193 11.443 15.6359C11.5027 15.6958 11.5451 15.7382 11.58 15.7679C11.6116 15.7948 11.6261 15.8011 11.6302 15.8025C11.634 15.8011 11.6498 15.7938 11.6874 15.7595C11.714 15.7352 11.7432 15.7058 11.78 15.6685C11.8079 15.6404 11.8401 15.6079 11.8789 15.5698L13.8888 13.5947L13.8889 13.5945C13.9687 13.5164 13.984 13.4766 13.9843 13.4537C13.9847 13.4316 13.9715 13.39 13.8881 13.3075L13.887 13.3063L13.887 13.3063L13.3616 12.7683L10.8816 13.6128ZM10.8816 13.6128L11.581 14.274L11.6522 14.3413M10.8816 13.6128L11.6522 14.3413M11.6522 14.3413L11.7209 14.2715M11.6522 14.3413L11.7209 14.2715M11.7209 14.2715L13.1284 12.8423L13.0571 12.7721M11.7209 14.2715L13.0571 12.7721M13.0571 12.7721L13.1284 12.8423C13.1378 12.8327 13.1465 12.8238 13.1547 12.8153M13.0571 12.7721L13.1547 12.8153M13.1547 12.8153C13.1775 12.7919 13.1966 12.7723 13.2157 12.7549M13.1547 12.8153L13.2157 12.7549M13.2157 12.7549C13.2415 12.7314 13.2584 12.7206 13.27 12.716M13.2157 12.7549L13.27 12.716M13.27 12.716C13.2778 12.7129 13.2828 12.7126 13.2914 12.7156M13.27 12.716L13.2914 12.7156M13.2914 12.7156C13.3037 12.7198 13.3265 12.7325 13.3615 12.7682L13.2914 12.7156ZM9.79049 4.86957L9.79043 4.86952C9.54708 4.6618 9.40184 4.34527 9.36905 3.92641V2.34289L12.0349 5.22643L10.9743 5.22755C10.4364 5.21779 10.0455 5.08756 9.79049 4.86957ZM10.9651 6.28434V6.28435L10.9666 6.28435L12.2714 6.28562V9.22143V9.31537L12.3652 9.32123C12.6533 9.33924 12.9346 9.38191 13.2072 9.44756L13.3306 9.47729L13.3306 9.35031L13.3296 5.27823C13.3296 5.27822 13.3296 5.27821 13.3296 5.2782C13.3296 5.15004 13.2834 5.02149 13.1895 4.91964L13.1894 4.91953L9.47177 0.897719C9.37495 0.772793 9.22327 0.692175 9.05272 0.692175H3.13844C2.52345 0.692175 1.96372 0.944529 1.55687 1.35103L1.55681 1.35109C1.1523 1.75595 0.9 2.3157 0.9 2.93061V14.3758C0.9 14.9914 1.15229 15.5515 1.55715 15.9567L1.55721 15.9568C1.96244 16.3617 2.52288 16.6139 3.13844 16.6139H7.53741H7.69976L7.62672 16.469C7.49174 16.201 7.38074 15.919 7.29607 15.626L7.27519 15.5537H7.2H3.13844C2.81601 15.5537 2.52065 15.4207 2.30711 15.2072C2.09318 14.9933 1.9602 14.6982 1.9602 14.3758V2.93061C1.9602 2.60666 2.09266 2.31169 2.30608 2.09826C2.51951 1.88483 2.81449 1.75238 3.13844 1.75238H8.30884V3.93231H8.30864L8.30904 3.93862L8.31278 3.9978L8.31278 3.9978L8.31287 3.99907C8.36589 4.69707 8.62882 5.26914 9.10237 5.67397L9.1024 5.67399C9.55605 6.06152 10.1833 6.27217 10.9651 6.28434ZM9.76901 9.86792L9.88408 9.80794L9.79676 9.71195C9.69974 9.60532 9.55967 9.53809 9.40408 9.53809H4.55646C4.26382 9.53809 4.02653 9.77538 4.02653 10.068C4.02653 10.361 4.26377 10.5983 4.55646 10.5983H8.68401H8.72225L8.75073 10.5728C9.05944 10.2963 9.40152 10.0595 9.76901 9.86792ZM7.57878 12.1401L7.64658 11.9973H7.48843H4.55646C4.26382 11.9973 4.02653 12.2346 4.02653 12.5272C4.02653 12.8201 4.26377 13.0575 4.55646 13.0575H7.17245H7.24929L7.26908 12.9832C7.34707 12.6906 7.45141 12.4086 7.57878 12.1401ZM4.02653 7.60918C4.02653 7.90183 4.26382 8.13911 4.55646 8.13911H9.67517C9.96771 8.13911 10.2054 7.90193 10.2054 7.60918C10.2054 7.31615 9.96776 7.07891 9.67517 7.07891H4.55646C4.26377 7.07891 4.02653 7.31625 4.02653 7.60918Z" fill="#4A4A4A" stroke="#4A4A4A" stroke-width="0.2"/>
</svg>
