<svg width="16" height="17" viewBox="0 0 16 17" fill="none" xmlns="http://www.w3.org/2000/svg">
<g id="Group 159">
<path id="Vector" d="M9.08223 8.64646H14.1393C14.3765 8.64646 14.5918 8.74441 14.7474 8.90254C14.9032 9.06043 15 9.27886 15 9.51947V14.627C15 14.8673 14.9032 15.086 14.7474 15.2437C14.5918 15.4018 14.3765 15.5 14.1393 15.5H9.08223C8.84517 15.5 8.62983 15.4018 8.47407 15.2437C8.31843 15.086 8.22162 14.8673 8.22162 14.627V9.51959C8.22162 9.27899 8.31843 9.06055 8.47407 8.90267C8.62983 8.74441 8.84517 8.64646 9.08223 8.64646ZM0.860847 0.5H5.91777C6.15484 0.5 6.37029 0.598074 6.52605 0.756206C6.68182 0.914338 6.7785 1.13265 6.7785 1.37325V6.48066C6.7785 6.72126 6.68182 6.9397 6.52605 7.09758C6.37029 7.25559 6.15484 7.35379 5.91777 7.35379H0.860847C0.624761 7.35379 0.41016 7.25559 0.254275 7.09758L0.25342 7.09684L0.252566 7.09758C0.0966805 6.93957 0 6.72114 0 6.48053V1.37325C0 1.13265 0.0966805 0.914214 0.252566 0.756206C0.263918 0.74469 0.275881 0.733793 0.287966 0.723762C0.440311 0.584824 0.641485 0.5 0.860847 0.5ZM5.87541 1.41598H0.902961V6.43769H5.87529L5.87541 1.41598ZM9.08223 0.5H14.1393C14.3765 0.5 14.5918 0.598074 14.7474 0.756206C14.9032 0.914214 15 1.13265 15 1.37325V6.48066C15 6.72126 14.9032 6.9397 14.7474 7.09758C14.5918 7.25559 14.3765 7.35379 14.1393 7.35379H9.08223C8.84517 7.35379 8.62983 7.25559 8.47407 7.09758C8.31843 6.9397 8.22162 6.72114 8.22162 6.48066V1.37325C8.22162 1.13265 8.31843 0.914214 8.47407 0.756206C8.62983 0.598074 8.84517 0.5 9.08223 0.5ZM14.097 1.41598H9.12459V6.43769H14.097V1.41598ZM0.860847 8.64646H5.91777C6.15484 8.64646 6.37029 8.74441 6.52605 8.90254C6.68182 9.06043 6.7785 9.27886 6.7785 9.51947V14.627C6.7785 14.8673 6.68182 15.086 6.52605 15.2437C6.37029 15.4018 6.15484 15.5 5.91777 15.5H0.860847C0.624761 15.5 0.41016 15.4018 0.254275 15.2437L0.25342 15.2429L0.252566 15.2437C0.0966805 15.0862 0 14.8675 0 14.6271V9.51959C0 9.27899 0.0966805 9.06055 0.252566 8.90267C0.263918 8.89102 0.275881 8.88013 0.288088 8.86997C0.440311 8.73116 0.641485 8.64646 0.860847 8.64646ZM5.87541 9.56244H0.902961V14.5841H5.87529L5.87541 9.56244ZM14.097 9.56244H9.12459V14.5841H14.097V9.56244Z" fill="#4A4A4A"/>
</g>
</svg>
