<svg width="126" height="35" viewBox="0 0 126 35" fill="none" xmlns="http://www.w3.org/2000/svg">
<g id="Group 2022">
<path id="Subtract" fill-rule="evenodd" clip-rule="evenodd" d="M12.1572 25.9229C12.1572 27.0722 13.0879 27.9606 14.236 27.9072C15.3841 27.8539 16.3148 26.8789 16.3148 25.7296V20.219L22.4826 18.8802V34.5779C21.1814 34.8542 19.8281 35 18.439 35C8.25544 35 0 27.165 0 17.5C0 9.92853 5.06639 3.48012 12.1572 1.04181V17.0764L4.88298 18.6554C3.81578 18.887 3.1136 19.945 3.31461 21.0184C3.51562 22.0918 4.5437 22.7741 5.6109 22.5425L12.1572 21.1215V25.9229ZM26.6375 33.1794C32.7071 30.3152 36.8781 24.3699 36.8781 17.5C36.8781 7.83502 28.6227 0 18.439 0C17.7206 0 17.0118 0.0389953 16.3148 0.114878V16.1739L22.4826 14.8351V9.26366C22.4826 8.11508 23.4127 7.14073 24.5601 7.08739C25.7074 7.03404 26.6375 7.92189 26.6375 9.07047V13.9332L30.5895 13.0753C31.6567 12.8437 32.6848 13.5261 32.8858 14.5994C33.0868 15.6728 32.3846 16.7308 31.3174 16.9624L26.6375 17.9783V33.1794Z" fill="#FF5D25"/>
<g id="ohoh">
<path d="M51.679 29.1243C50.0484 29.1243 48.5684 28.8507 47.2388 28.3035C45.9343 27.7325 44.9058 26.9473 44.1532 25.9481C43.4006 24.9488 43.0243 23.8187 43.0243 22.5578V17.5258C43.0243 16.241 43.388 15.0752 44.1155 14.0284C44.8681 12.9815 45.8967 12.1607 47.2012 11.5659C48.5056 10.9473 49.9983 10.638 51.679 10.638C53.3598 10.638 54.8525 10.9473 56.1569 11.5659C57.4865 12.1607 58.5151 12.9815 59.2426 14.0284C59.9951 15.0752 60.3714 16.241 60.3714 17.5258V22.5578C60.3714 23.8187 59.9826 24.9488 59.2049 25.9481C58.4523 26.9473 57.4113 27.7325 56.0817 28.3035C54.7772 28.8507 53.3097 29.1243 51.679 29.1243ZM51.679 25.3057C52.9334 25.3057 53.9117 25.0321 54.6141 24.4849C55.3416 23.9377 55.7054 23.2001 55.7054 22.2723V17.7399C55.7054 16.7644 55.3416 15.9793 54.6141 15.3845C53.9117 14.7659 52.9334 14.4566 51.679 14.4566C50.4498 14.4566 49.4715 14.7659 48.744 15.3845C48.0165 15.9793 47.6527 16.7644 47.6527 17.7399V22.2723C47.6527 23.2001 48.0165 23.9377 48.744 24.4849C49.4715 25.0321 50.4498 25.3057 51.679 25.3057Z" fill="#2F2F2F"/>
<path d="M65.2089 6.92651C65.2089 5.83209 65.6102 4.98748 66.413 4.39268C67.2158 3.79789 68.3697 3.50049 69.8749 3.50049V12.7793C69.5488 13.1124 69.2478 13.4931 68.9718 13.9213L69.1976 14.0641C70.9285 11.7801 73.1361 10.638 75.8204 10.638C77.0998 10.638 78.2286 10.9116 79.207 11.4589C80.1854 12.0061 80.9379 12.7555 81.4648 13.7072C82.0167 14.6589 82.2926 15.7295 82.2926 16.9191V26.412C82.2926 27.3637 81.9038 28.0537 81.1261 28.4819C80.3484 28.9102 79.1694 29.1243 77.5889 29.1243V17.5615C77.5889 16.6574 77.3004 15.9198 76.7235 15.3488C76.1716 14.7778 75.3563 14.4923 74.2776 14.4923C72.9982 14.4923 71.9445 14.873 71.1167 15.6343C70.2888 16.3719 69.8749 17.2998 69.8749 18.418V26.412C69.8749 27.3637 69.4861 28.0537 68.7084 28.4819C67.9307 28.9102 66.7642 29.1243 65.2089 29.1243V6.92651Z" fill="#2F2F2F"/>
<path d="M95.3865 29.1243C93.7558 29.1243 92.2758 28.8507 90.9462 28.3035C89.6417 27.7325 88.6132 26.9473 87.8606 25.9481C87.108 24.9488 86.7317 23.8187 86.7317 22.5578V17.5258C86.7317 16.241 87.0954 15.0752 87.8229 14.0284C88.5755 12.9815 89.6041 12.1607 90.9086 11.5659C92.213 10.9473 93.7057 10.638 95.3865 10.638C97.0672 10.638 98.5599 10.9473 99.8644 11.5659C101.194 12.1607 102.222 12.9815 102.95 14.0284C103.703 15.0752 104.079 16.241 104.079 17.5258V22.5578C104.079 23.8187 103.69 24.9488 102.912 25.9481C102.16 26.9473 101.119 27.7325 99.7891 28.3035C98.4846 28.8507 97.0171 29.1243 95.3865 29.1243ZM95.3865 25.3057C96.6408 25.3057 97.6191 25.0321 98.3215 24.4849C99.049 23.9377 99.4128 23.2001 99.4128 22.2723V17.7399C99.4128 16.7644 99.049 15.9793 98.3215 15.3845C97.6191 14.7659 96.6408 14.4566 95.3865 14.4566C94.1572 14.4566 93.1789 14.7659 92.4514 15.3845C91.7239 15.9793 91.3601 16.7644 91.3601 17.7399V22.2723C91.3601 23.2001 91.7239 23.9377 92.4514 24.4849C93.1789 25.0321 94.1572 25.3057 95.3865 25.3057Z" fill="#2F2F2F"/>
<path d="M108.916 6.92651C108.916 5.83209 109.318 4.98748 110.12 4.39268C110.923 3.79789 112.077 3.50049 113.582 3.50049V12.7793C113.256 13.1124 112.955 13.4931 112.679 13.9213L112.905 14.0641C114.636 11.7801 116.844 10.638 119.528 10.638C120.807 10.638 121.936 10.9116 122.914 11.4589C123.893 12.0061 124.645 12.7555 125.172 13.7072C125.724 14.6589 126 15.7295 126 16.9191V26.412C126 27.3637 125.611 28.0537 124.834 28.4819C124.056 28.9102 122.877 29.1243 121.296 29.1243V17.5615C121.296 16.6574 121.008 15.9198 120.431 15.3488C119.879 14.7778 119.064 14.4923 117.985 14.4923C116.706 14.4923 115.652 14.873 114.824 15.6343C113.996 16.3719 113.582 17.2998 113.582 18.418V26.412C113.582 27.3637 113.193 28.0537 112.416 28.4819C111.638 28.9102 110.472 29.1243 108.916 29.1243V6.92651Z" fill="#2F2F2F"/>
</g>
</g>
</svg>
