<svg width="17" height="19" viewBox="0 0 17 19" fill="none" xmlns="http://www.w3.org/2000/svg">
<g id="Vector">
<mask id="path-1-outside-1_3737_4775" maskUnits="userSpaceOnUse" x="0" y="-0.232422" width="17" height="19" fill="black">
<rect fill="white" y="-0.232422" width="17" height="19"/>
<path fill-rule="evenodd" clip-rule="evenodd" d="M12.0701 10.3694C12.9797 10.3698 13.861 10.6856 14.5638 11.2629C15.2667 11.8402 15.7476 12.6433 15.9247 13.5354C16.1018 14.4276 15.9642 15.3535 15.5352 16.1555C15.1061 16.9576 14.4123 17.586 13.5719 17.9339C12.7315 18.2817 11.7965 18.3274 10.9262 18.0632C10.0558 17.799 9.30404 17.2412 8.79885 16.4848C8.29366 15.7285 8.06634 14.8204 8.1556 13.9152C8.24486 13.01 8.64519 12.1638 9.28839 11.5207C9.6535 11.1552 10.0872 10.8654 10.5645 10.6678C11.0419 10.4702 11.5535 10.3688 12.0701 10.3694ZM13.6195 15.2577C13.6448 15.2566 13.6701 15.2532 13.6948 15.2477C13.7198 15.2432 13.7442 15.2355 13.7673 15.225C13.8448 15.1941 13.9115 15.1413 13.9592 15.0729C14.0081 15.0047 14.0358 14.9236 14.0388 14.8398V14.8099C14.0367 14.7144 14.0033 14.6222 13.9438 14.5474C13.8842 14.4727 13.8017 14.4196 13.709 14.3963C13.6814 14.3903 13.6534 14.3865 13.6252 14.3849C13.4603 14.3849 12.5961 14.3707 12.4184 14.3608L12.2663 14.3522L12.3146 12.8896C12.3167 12.8617 12.3167 12.8336 12.3146 12.8057C12.3092 12.7786 12.3016 12.752 12.2919 12.7261C12.2817 12.6998 12.2688 12.6745 12.2535 12.6508C12.238 12.627 12.2204 12.6046 12.2009 12.584C12.1809 12.5645 12.1595 12.5464 12.1369 12.53C12.114 12.5134 12.0892 12.4996 12.063 12.4887C12.0373 12.4776 12.0106 12.4686 11.9834 12.4617C11.9567 12.4561 11.9296 12.4528 11.9024 12.4518H11.8882C11.8332 12.4513 11.7787 12.4614 11.7276 12.4816C11.6751 12.5026 11.627 12.5329 11.5854 12.5712L11.5755 12.5811C11.5583 12.5996 11.5421 12.6191 11.5271 12.6394C11.5125 12.6623 11.4992 12.686 11.4873 12.7105C11.4653 12.7617 11.4532 12.8167 11.4518 12.8725L11.3765 14.7559C11.3743 14.7838 11.3743 14.8119 11.3765 14.8398C11.3812 14.8675 11.3888 14.8947 11.3992 14.9208C11.4083 14.9474 11.4208 14.9727 11.4362 14.9961C11.4503 15.0201 11.467 15.0425 11.4859 15.0629C11.5032 15.0823 11.5228 15.0994 11.5442 15.1141C11.5657 15.1283 11.588 15.1411 11.611 15.1525C11.6362 15.1643 11.6623 15.1738 11.6892 15.1809C11.7149 15.1867 11.7411 15.1905 11.7674 15.1923C11.901 15.1923 12.0403 15.2079 12.1824 15.2179C12.4269 15.2349 13.3622 15.252 13.5868 15.2463L13.6195 15.2577ZM13.7176 8.93941V9.43833C13.4183 9.33868 13.1104 9.26683 12.7979 9.22369V8.93941V5.90891H8.94724C8.82397 5.90891 8.70574 5.85994 8.61857 5.77277C8.5314 5.6856 8.48243 5.56737 8.48243 5.4441V1.68867H1.92678V15.6926H7.13065V15.7054V15.7196V15.7282V15.7395V15.7509V15.7637V15.7751V15.7836V15.7964V15.8049V15.8149V15.8277V15.839V15.8476V15.8604L7.13918 15.8845V15.8973V15.9073L7.15055 15.9442V15.9556V15.9656V15.9741V15.984L7.1605 16.0096V16.0182V16.0324L7.16903 16.0565V16.0665C7.18608 16.1105 7.20314 16.1546 7.22162 16.1987L7.24578 16.2555L7.26995 16.3124L7.30122 16.382C7.32681 16.4389 7.35381 16.4943 7.38082 16.5498H1.8287C1.60908 16.5491 1.3986 16.4618 1.24307 16.3067C1.10189 16.1683 1.01556 15.9835 1 15.7865V1.59628C1.00038 1.37661 1.08781 1.16604 1.24313 1.01072C1.39846 0.855386 1.60903 0.767956 1.8287 0.767581H8.94724C9.01556 0.767358 9.08307 0.782435 9.14481 0.811705C9.20655 0.840974 9.26095 0.883695 9.30402 0.936731L13.2015 4.73918C13.321 4.8557 13.4845 4.9254 13.5974 5.04821C13.6075 5.0592 13.6171 5.07071 13.6262 5.08272C13.6868 5.16306 13.7194 5.26103 13.719 5.36166V8.93941H13.7176ZM9.40921 2.38802L12.1782 4.98355H9.40921V2.38802ZM3.68083 8.60963C3.71063 8.57522 3.74723 8.54736 3.78833 8.52779C3.82942 8.50822 3.87413 8.49737 3.91963 8.49592H9.3623C9.40893 8.49602 9.45499 8.50609 9.4974 8.52546C9.53982 8.54483 9.5776 8.57304 9.60821 8.60821C9.67112 8.68083 9.70575 8.77368 9.70575 8.86976C9.70575 8.96583 9.67112 9.05869 9.60821 9.1313C9.57777 9.16641 9.54025 9.19469 9.49812 9.21429C9.45598 9.23388 9.41018 9.24436 9.36372 9.24502H3.92531C3.8787 9.24482 3.83267 9.23471 3.79027 9.21535C3.74787 9.19599 3.71007 9.16782 3.6794 9.13272C3.61573 9.05992 3.58063 8.96648 3.58063 8.86976C3.58063 8.77303 3.61573 8.6796 3.6794 8.60679L3.68083 8.60963ZM3.68083 6.14771C3.71134 6.11279 3.7489 6.08473 3.79104 6.06537C3.83318 6.04602 3.87894 6.03581 3.92531 6.03542H7.14202C7.1878 6.03565 7.23304 6.04536 7.27487 6.06396C7.31671 6.08255 7.35424 6.10962 7.38508 6.14345C7.44887 6.21648 7.48402 6.31016 7.48402 6.40712C7.48402 6.50409 7.44887 6.59776 7.38508 6.6708C7.35464 6.70591 7.31713 6.73419 7.27499 6.75378C7.23286 6.77338 7.18706 6.78385 7.1406 6.78451H3.92531C3.8787 6.78432 3.83267 6.77421 3.79027 6.75485C3.74787 6.73549 3.71007 6.70732 3.6794 6.67222C3.61562 6.59919 3.58047 6.50551 3.58047 6.40854C3.58047 6.31158 3.61562 6.2179 3.6794 6.14487L3.68083 6.14771ZM7.64379 11.7126H3.92958C3.88274 11.7125 3.83646 11.7025 3.79381 11.6831C3.75117 11.6638 3.71313 11.6355 3.68225 11.6003C3.61878 11.527 3.58439 11.4329 3.58559 11.3359C3.58468 11.2396 3.61964 11.1464 3.68367 11.0744C3.71438 11.0393 3.75215 11.011 3.79452 10.9914C3.83689 10.9718 3.8829 10.9613 3.92958 10.9607H8.18109C7.97967 11.1946 7.79984 11.4463 7.64379 11.7126ZM3.68367 13.5306C3.71438 13.4955 3.75215 13.4672 3.79452 13.4476C3.83689 13.428 3.8829 13.4176 3.92958 13.4169H7.01693C6.97347 13.6654 6.94877 13.9167 6.94302 14.1689H3.92958C3.88274 14.1688 3.83646 14.1587 3.79381 14.1394C3.75117 14.12 3.71313 14.0918 3.68225 14.0566C3.61899 13.9837 3.58461 13.8901 3.58559 13.7936C3.58447 13.6968 3.61943 13.6031 3.68367 13.5306ZM14.3444 12.0324C13.8196 11.5085 13.1295 11.1826 12.3914 11.1103C11.6534 11.0379 10.9131 11.2236 10.2966 11.6357C9.68006 12.0479 9.22543 12.6609 9.01009 13.3705C8.79474 14.0802 8.83201 14.8425 9.11552 15.5277C9.39904 16.213 9.91129 16.7788 10.5651 17.1288C11.2188 17.4788 11.9737 17.5914 12.7012 17.4475C13.4287 17.3035 14.0837 16.9119 14.5549 16.3392C15.0261 15.7666 15.2843 15.0483 15.2854 14.3067C15.2868 13.8843 15.2043 13.4657 15.0428 13.0753C14.8813 12.6849 14.6439 12.3305 14.3444 12.0324Z"/>
</mask>
<path fill-rule="evenodd" clip-rule="evenodd" d="M12.0701 10.3694C12.9797 10.3698 13.861 10.6856 14.5638 11.2629C15.2667 11.8402 15.7476 12.6433 15.9247 13.5354C16.1018 14.4276 15.9642 15.3535 15.5352 16.1555C15.1061 16.9576 14.4123 17.586 13.5719 17.9339C12.7315 18.2817 11.7965 18.3274 10.9262 18.0632C10.0558 17.799 9.30404 17.2412 8.79885 16.4848C8.29366 15.7285 8.06634 14.8204 8.1556 13.9152C8.24486 13.01 8.64519 12.1638 9.28839 11.5207C9.6535 11.1552 10.0872 10.8654 10.5645 10.6678C11.0419 10.4702 11.5535 10.3688 12.0701 10.3694ZM13.6195 15.2577C13.6448 15.2566 13.6701 15.2532 13.6948 15.2477C13.7198 15.2432 13.7442 15.2355 13.7673 15.225C13.8448 15.1941 13.9115 15.1413 13.9592 15.0729C14.0081 15.0047 14.0358 14.9236 14.0388 14.8398V14.8099C14.0367 14.7144 14.0033 14.6222 13.9438 14.5474C13.8842 14.4727 13.8017 14.4196 13.709 14.3963C13.6814 14.3903 13.6534 14.3865 13.6252 14.3849C13.4603 14.3849 12.5961 14.3707 12.4184 14.3608L12.2663 14.3522L12.3146 12.8896C12.3167 12.8617 12.3167 12.8336 12.3146 12.8057C12.3092 12.7786 12.3016 12.752 12.2919 12.7261C12.2817 12.6998 12.2688 12.6745 12.2535 12.6508C12.238 12.627 12.2204 12.6046 12.2009 12.584C12.1809 12.5645 12.1595 12.5464 12.1369 12.53C12.114 12.5134 12.0892 12.4996 12.063 12.4887C12.0373 12.4776 12.0106 12.4686 11.9834 12.4617C11.9567 12.4561 11.9296 12.4528 11.9024 12.4518H11.8882C11.8332 12.4513 11.7787 12.4614 11.7276 12.4816C11.6751 12.5026 11.627 12.5329 11.5854 12.5712L11.5755 12.5811C11.5583 12.5996 11.5421 12.6191 11.5271 12.6394C11.5125 12.6623 11.4992 12.686 11.4873 12.7105C11.4653 12.7617 11.4532 12.8167 11.4518 12.8725L11.3765 14.7559C11.3743 14.7838 11.3743 14.8119 11.3765 14.8398C11.3812 14.8675 11.3888 14.8947 11.3992 14.9208C11.4083 14.9474 11.4208 14.9727 11.4362 14.9961C11.4503 15.0201 11.467 15.0425 11.4859 15.0629C11.5032 15.0823 11.5228 15.0994 11.5442 15.1141C11.5657 15.1283 11.588 15.1411 11.611 15.1525C11.6362 15.1643 11.6623 15.1738 11.6892 15.1809C11.7149 15.1867 11.7411 15.1905 11.7674 15.1923C11.901 15.1923 12.0403 15.2079 12.1824 15.2179C12.4269 15.2349 13.3622 15.252 13.5868 15.2463L13.6195 15.2577ZM13.7176 8.93941V9.43833C13.4183 9.33868 13.1104 9.26683 12.7979 9.22369V8.93941V5.90891H8.94724C8.82397 5.90891 8.70574 5.85994 8.61857 5.77277C8.5314 5.6856 8.48243 5.56737 8.48243 5.4441V1.68867H1.92678V15.6926H7.13065V15.7054V15.7196V15.7282V15.7395V15.7509V15.7637V15.7751V15.7836V15.7964V15.8049V15.8149V15.8277V15.839V15.8476V15.8604L7.13918 15.8845V15.8973V15.9073L7.15055 15.9442V15.9556V15.9656V15.9741V15.984L7.1605 16.0096V16.0182V16.0324L7.16903 16.0565V16.0665C7.18608 16.1105 7.20314 16.1546 7.22162 16.1987L7.24578 16.2555L7.26995 16.3124L7.30122 16.382C7.32681 16.4389 7.35381 16.4943 7.38082 16.5498H1.8287C1.60908 16.5491 1.3986 16.4618 1.24307 16.3067C1.10189 16.1683 1.01556 15.9835 1 15.7865V1.59628C1.00038 1.37661 1.08781 1.16604 1.24313 1.01072C1.39846 0.855386 1.60903 0.767956 1.8287 0.767581H8.94724C9.01556 0.767358 9.08307 0.782435 9.14481 0.811705C9.20655 0.840974 9.26095 0.883695 9.30402 0.936731L13.2015 4.73918C13.321 4.8557 13.4845 4.9254 13.5974 5.04821C13.6075 5.0592 13.6171 5.07071 13.6262 5.08272C13.6868 5.16306 13.7194 5.26103 13.719 5.36166V8.93941H13.7176ZM9.40921 2.38802L12.1782 4.98355H9.40921V2.38802ZM3.68083 8.60963C3.71063 8.57522 3.74723 8.54736 3.78833 8.52779C3.82942 8.50822 3.87413 8.49737 3.91963 8.49592H9.3623C9.40893 8.49602 9.45499 8.50609 9.4974 8.52546C9.53982 8.54483 9.5776 8.57304 9.60821 8.60821C9.67112 8.68083 9.70575 8.77368 9.70575 8.86976C9.70575 8.96583 9.67112 9.05869 9.60821 9.1313C9.57777 9.16641 9.54025 9.19469 9.49812 9.21429C9.45598 9.23388 9.41018 9.24436 9.36372 9.24502H3.92531C3.8787 9.24482 3.83267 9.23471 3.79027 9.21535C3.74787 9.19599 3.71007 9.16782 3.6794 9.13272C3.61573 9.05992 3.58063 8.96648 3.58063 8.86976C3.58063 8.77303 3.61573 8.6796 3.6794 8.60679L3.68083 8.60963ZM3.68083 6.14771C3.71134 6.11279 3.7489 6.08473 3.79104 6.06537C3.83318 6.04602 3.87894 6.03581 3.92531 6.03542H7.14202C7.1878 6.03565 7.23304 6.04536 7.27487 6.06396C7.31671 6.08255 7.35424 6.10962 7.38508 6.14345C7.44887 6.21648 7.48402 6.31016 7.48402 6.40712C7.48402 6.50409 7.44887 6.59776 7.38508 6.6708C7.35464 6.70591 7.31713 6.73419 7.27499 6.75378C7.23286 6.77338 7.18706 6.78385 7.1406 6.78451H3.92531C3.8787 6.78432 3.83267 6.77421 3.79027 6.75485C3.74787 6.73549 3.71007 6.70732 3.6794 6.67222C3.61562 6.59919 3.58047 6.50551 3.58047 6.40854C3.58047 6.31158 3.61562 6.2179 3.6794 6.14487L3.68083 6.14771ZM7.64379 11.7126H3.92958C3.88274 11.7125 3.83646 11.7025 3.79381 11.6831C3.75117 11.6638 3.71313 11.6355 3.68225 11.6003C3.61878 11.527 3.58439 11.4329 3.58559 11.3359C3.58468 11.2396 3.61964 11.1464 3.68367 11.0744C3.71438 11.0393 3.75215 11.011 3.79452 10.9914C3.83689 10.9718 3.8829 10.9613 3.92958 10.9607H8.18109C7.97967 11.1946 7.79984 11.4463 7.64379 11.7126ZM3.68367 13.5306C3.71438 13.4955 3.75215 13.4672 3.79452 13.4476C3.83689 13.428 3.8829 13.4176 3.92958 13.4169H7.01693C6.97347 13.6654 6.94877 13.9167 6.94302 14.1689H3.92958C3.88274 14.1688 3.83646 14.1587 3.79381 14.1394C3.75117 14.12 3.71313 14.0918 3.68225 14.0566C3.61899 13.9837 3.58461 13.8901 3.58559 13.7936C3.58447 13.6968 3.61943 13.6031 3.68367 13.5306ZM14.3444 12.0324C13.8196 11.5085 13.1295 11.1826 12.3914 11.1103C11.6534 11.0379 10.9131 11.2236 10.2966 11.6357C9.68006 12.0479 9.22543 12.6609 9.01009 13.3705C8.79474 14.0802 8.83201 14.8425 9.11552 15.5277C9.39904 16.213 9.91129 16.7788 10.5651 17.1288C11.2188 17.4788 11.9737 17.5914 12.7012 17.4475C13.4287 17.3035 14.0837 16.9119 14.5549 16.3392C15.0261 15.7666 15.2843 15.0483 15.2854 14.3067C15.2868 13.8843 15.2043 13.4657 15.0428 13.0753C14.8813 12.6849 14.6439 12.3305 14.3444 12.0324Z" fill="white"/>
<path fill-rule="evenodd" clip-rule="evenodd" d="M12.0701 10.3694C12.9797 10.3698 13.861 10.6856 14.5638 11.2629C15.2667 11.8402 15.7476 12.6433 15.9247 13.5354C16.1018 14.4276 15.9642 15.3535 15.5352 16.1555C15.1061 16.9576 14.4123 17.586 13.5719 17.9339C12.7315 18.2817 11.7965 18.3274 10.9262 18.0632C10.0558 17.799 9.30404 17.2412 8.79885 16.4848C8.29366 15.7285 8.06634 14.8204 8.1556 13.9152C8.24486 13.01 8.64519 12.1638 9.28839 11.5207C9.6535 11.1552 10.0872 10.8654 10.5645 10.6678C11.0419 10.4702 11.5535 10.3688 12.0701 10.3694ZM13.6195 15.2577C13.6448 15.2566 13.6701 15.2532 13.6948 15.2477C13.7198 15.2432 13.7442 15.2355 13.7673 15.225C13.8448 15.1941 13.9115 15.1413 13.9592 15.0729C14.0081 15.0047 14.0358 14.9236 14.0388 14.8398V14.8099C14.0367 14.7144 14.0033 14.6222 13.9438 14.5474C13.8842 14.4727 13.8017 14.4196 13.709 14.3963C13.6814 14.3903 13.6534 14.3865 13.6252 14.3849C13.4603 14.3849 12.5961 14.3707 12.4184 14.3608L12.2663 14.3522L12.3146 12.8896C12.3167 12.8617 12.3167 12.8336 12.3146 12.8057C12.3092 12.7786 12.3016 12.752 12.2919 12.7261C12.2817 12.6998 12.2688 12.6745 12.2535 12.6508C12.238 12.627 12.2204 12.6046 12.2009 12.584C12.1809 12.5645 12.1595 12.5464 12.1369 12.53C12.114 12.5134 12.0892 12.4996 12.063 12.4887C12.0373 12.4776 12.0106 12.4686 11.9834 12.4617C11.9567 12.4561 11.9296 12.4528 11.9024 12.4518H11.8882C11.8332 12.4513 11.7787 12.4614 11.7276 12.4816C11.6751 12.5026 11.627 12.5329 11.5854 12.5712L11.5755 12.5811C11.5583 12.5996 11.5421 12.6191 11.5271 12.6394C11.5125 12.6623 11.4992 12.686 11.4873 12.7105C11.4653 12.7617 11.4532 12.8167 11.4518 12.8725L11.3765 14.7559C11.3743 14.7838 11.3743 14.8119 11.3765 14.8398C11.3812 14.8675 11.3888 14.8947 11.3992 14.9208C11.4083 14.9474 11.4208 14.9727 11.4362 14.9961C11.4503 15.0201 11.467 15.0425 11.4859 15.0629C11.5032 15.0823 11.5228 15.0994 11.5442 15.1141C11.5657 15.1283 11.588 15.1411 11.611 15.1525C11.6362 15.1643 11.6623 15.1738 11.6892 15.1809C11.7149 15.1867 11.7411 15.1905 11.7674 15.1923C11.901 15.1923 12.0403 15.2079 12.1824 15.2179C12.4269 15.2349 13.3622 15.252 13.5868 15.2463L13.6195 15.2577ZM13.7176 8.93941V9.43833C13.4183 9.33868 13.1104 9.26683 12.7979 9.22369V8.93941V5.90891H8.94724C8.82397 5.90891 8.70574 5.85994 8.61857 5.77277C8.5314 5.6856 8.48243 5.56737 8.48243 5.4441V1.68867H1.92678V15.6926H7.13065V15.7054V15.7196V15.7282V15.7395V15.7509V15.7637V15.7751V15.7836V15.7964V15.8049V15.8149V15.8277V15.839V15.8476V15.8604L7.13918 15.8845V15.8973V15.9073L7.15055 15.9442V15.9556V15.9656V15.9741V15.984L7.1605 16.0096V16.0182V16.0324L7.16903 16.0565V16.0665C7.18608 16.1105 7.20314 16.1546 7.22162 16.1987L7.24578 16.2555L7.26995 16.3124L7.30122 16.382C7.32681 16.4389 7.35381 16.4943 7.38082 16.5498H1.8287C1.60908 16.5491 1.3986 16.4618 1.24307 16.3067C1.10189 16.1683 1.01556 15.9835 1 15.7865V1.59628C1.00038 1.37661 1.08781 1.16604 1.24313 1.01072C1.39846 0.855386 1.60903 0.767956 1.8287 0.767581H8.94724C9.01556 0.767358 9.08307 0.782435 9.14481 0.811705C9.20655 0.840974 9.26095 0.883695 9.30402 0.936731L13.2015 4.73918C13.321 4.8557 13.4845 4.9254 13.5974 5.04821C13.6075 5.0592 13.6171 5.07071 13.6262 5.08272C13.6868 5.16306 13.7194 5.26103 13.719 5.36166V8.93941H13.7176ZM9.40921 2.38802L12.1782 4.98355H9.40921V2.38802ZM3.68083 8.60963C3.71063 8.57522 3.74723 8.54736 3.78833 8.52779C3.82942 8.50822 3.87413 8.49737 3.91963 8.49592H9.3623C9.40893 8.49602 9.45499 8.50609 9.4974 8.52546C9.53982 8.54483 9.5776 8.57304 9.60821 8.60821C9.67112 8.68083 9.70575 8.77368 9.70575 8.86976C9.70575 8.96583 9.67112 9.05869 9.60821 9.1313C9.57777 9.16641 9.54025 9.19469 9.49812 9.21429C9.45598 9.23388 9.41018 9.24436 9.36372 9.24502H3.92531C3.8787 9.24482 3.83267 9.23471 3.79027 9.21535C3.74787 9.19599 3.71007 9.16782 3.6794 9.13272C3.61573 9.05992 3.58063 8.96648 3.58063 8.86976C3.58063 8.77303 3.61573 8.6796 3.6794 8.60679L3.68083 8.60963ZM3.68083 6.14771C3.71134 6.11279 3.7489 6.08473 3.79104 6.06537C3.83318 6.04602 3.87894 6.03581 3.92531 6.03542H7.14202C7.1878 6.03565 7.23304 6.04536 7.27487 6.06396C7.31671 6.08255 7.35424 6.10962 7.38508 6.14345C7.44887 6.21648 7.48402 6.31016 7.48402 6.40712C7.48402 6.50409 7.44887 6.59776 7.38508 6.6708C7.35464 6.70591 7.31713 6.73419 7.27499 6.75378C7.23286 6.77338 7.18706 6.78385 7.1406 6.78451H3.92531C3.8787 6.78432 3.83267 6.77421 3.79027 6.75485C3.74787 6.73549 3.71007 6.70732 3.6794 6.67222C3.61562 6.59919 3.58047 6.50551 3.58047 6.40854C3.58047 6.31158 3.61562 6.2179 3.6794 6.14487L3.68083 6.14771ZM7.64379 11.7126H3.92958C3.88274 11.7125 3.83646 11.7025 3.79381 11.6831C3.75117 11.6638 3.71313 11.6355 3.68225 11.6003C3.61878 11.527 3.58439 11.4329 3.58559 11.3359C3.58468 11.2396 3.61964 11.1464 3.68367 11.0744C3.71438 11.0393 3.75215 11.011 3.79452 10.9914C3.83689 10.9718 3.8829 10.9613 3.92958 10.9607H8.18109C7.97967 11.1946 7.79984 11.4463 7.64379 11.7126ZM3.68367 13.5306C3.71438 13.4955 3.75215 13.4672 3.79452 13.4476C3.83689 13.428 3.8829 13.4176 3.92958 13.4169H7.01693C6.97347 13.6654 6.94877 13.9167 6.94302 14.1689H3.92958C3.88274 14.1688 3.83646 14.1587 3.79381 14.1394C3.75117 14.12 3.71313 14.0918 3.68225 14.0566C3.61899 13.9837 3.58461 13.8901 3.58559 13.7936C3.58447 13.6968 3.61943 13.6031 3.68367 13.5306ZM14.3444 12.0324C13.8196 11.5085 13.1295 11.1826 12.3914 11.1103C11.6534 11.0379 10.9131 11.2236 10.2966 11.6357C9.68006 12.0479 9.22543 12.6609 9.01009 13.3705C8.79474 14.0802 8.83201 14.8425 9.11552 15.5277C9.39904 16.213 9.91129 16.7788 10.5651 17.1288C11.2188 17.4788 11.9737 17.5914 12.7012 17.4475C13.4287 17.3035 14.0837 16.9119 14.5549 16.3392C15.0261 15.7666 15.2843 15.0483 15.2854 14.3067C15.2868 13.8843 15.2043 13.4657 15.0428 13.0753C14.8813 12.6849 14.6439 12.3305 14.3444 12.0324Z" stroke="white" stroke-width="0.4" mask="url(#path-1-outside-1_3737_4775)"/>
</g>
</svg>
