<svg width="15" height="14" viewBox="0 0 15 14" fill="none" xmlns="http://www.w3.org/2000/svg">
<path id="Vector" d="M10.125 0C8.26102 0 6.75 1.51125 6.75 3.375C6.75 5.23875 8.26102 6.75 10.125 6.75C11.989 6.75 13.5 5.23875 13.5 3.375C13.5 1.51125 11.989 0 10.125 0ZM4.5 0.75C2.84317 0.75 1.5 2.09325 1.5 3.75C1.5 5.40675 2.84317 6.75 4.5 6.75C5.12205 6.75 5.71125 6.56025 6.2109 6.21075C6.55043 5.97375 6.6357 5.496 6.3984 5.15625C6.1611 4.8165 5.70668 4.755 5.36715 4.992C5.11748 5.16675 4.81215 5.25 4.5 5.25C3.67155 5.25 3 4.57875 3 3.75C3 2.92125 3.67155 2.25 4.5 2.25C4.74465 2.25 4.96845 2.304 5.17965 2.41425C5.54715 2.6055 6.0198 2.47651 6.2109 2.10901C6.40208 1.74226 6.25027 1.26899 5.88285 1.07849C5.45902 0.857991 4.98705 0.75 4.5 0.75ZM10.125 1.5C11.1605 1.5 12 2.33925 12 3.375C12 4.41075 11.1605 5.25 10.125 5.25C9.08947 5.25 8.25 4.41075 8.25 3.375C8.25 2.33925 9.08947 1.5 10.125 1.5ZM2.29688 7.758C0.9213 8.32575 0 9.717 0 11.25V12.75C0 13.164 0.335775 13.5 0.75 13.5H3.75C4.16423 13.5 4.5 13.164 4.5 12.75C4.5 12.336 4.16423 12 3.75 12H1.5V11.25C1.5 10.407 2.00002 9.63301 2.57475 9.29251C3.11527 9.52051 3.68708 9.69301 4.19558 9.73576C4.60838 9.77101 4.9806 9.45976 5.01562 9.04651C5.05065 8.63401 4.75238 8.28452 4.33965 8.24927C4.0104 8.22152 3.65055 8.1225 3.23438 7.9455C3.13387 7.90275 3.07552 7.869 2.88285 7.78125C2.69392 7.695 2.48872 7.6785 2.29688 7.758ZM7.54688 7.758C6.1713 8.32575 5.25 9.717 5.25 11.25V12.75C5.25 13.164 5.58577 13.5 6 13.5H14.25C14.6642 13.5 15 13.164 15 12.75V11.25C15 9.753 14.0736 8.3955 12.7031 7.8045C12.5102 7.72125 12.2854 7.719 12.0938 7.8045C11.4302 8.10225 10.7837 8.25 10.125 8.25C9.4686 8.25 8.81985 8.094 8.13285 7.78125C7.94392 7.695 7.73873 7.6785 7.54688 7.758ZM7.83525 9.29251C8.54385 9.56101 9.39818 9.75 10.125 9.75C10.8461 9.75 11.6651 9.57373 12.3594 9.31723C13.0364 9.70273 13.5 10.4242 13.5 11.25V12H6.75V11.25C6.75 10.3763 7.24192 9.63976 7.83525 9.29251Z" fill="#4A4A4A"/>
</svg>
