<svg width="12" height="15" viewBox="0 0 12 15" fill="none" xmlns="http://www.w3.org/2000/svg">
<path id="Vector" d="M6 0C3.89705 0 2.19231 1.67917 2.19231 3.75C2.19231 5.82083 3.89705 7.5 6 7.5C8.10295 7.5 9.80769 5.82083 9.80769 3.75C9.80769 1.67917 8.10295 0 6 0ZM6 1.66667C7.16828 1.66667 8.11539 2.59917 8.11539 3.75C8.11539 4.90083 7.16828 5.83333 6 5.83333C4.83172 5.83333 3.88462 4.90083 3.88462 3.75C3.88462 2.59917 4.83172 1.66667 6 1.66667ZM3.09135 8.62C1.53942 9.25083 0.5 10.7967 0.5 12.5V14.1667C0.5 14.6267 0.878823 15 1.34615 15H10.6538C11.1212 15 11.5 14.6267 11.5 14.1667V12.5C11.5 10.8367 10.4548 9.32834 8.90865 8.67167C8.69102 8.57917 8.43743 8.57667 8.22115 8.67167C7.47248 9.00251 6.74309 9.16667 6 9.16667C5.25945 9.16667 4.52752 8.99333 3.75245 8.64583C3.5393 8.55 3.30779 8.53166 3.09135 8.62ZM3.41669 10.325C4.21614 10.6233 5.17999 10.8333 6 10.8333C6.81358 10.8333 7.73758 10.6375 8.52086 10.3525C9.2846 10.7808 9.80769 11.5825 9.80769 12.5V13.3333H2.19231V12.5C2.19231 11.5292 2.7473 10.7108 3.41669 10.325Z" fill="#4A4A4A"/>
</svg>
