<svg width="14" height="13" viewBox="0 0 14 13" fill="none" xmlns="http://www.w3.org/2000/svg">
<g id="Group">
<path id="Vector" fill-rule="evenodd" clip-rule="evenodd" d="M12.4 0.549988H1.37778C0.62 0.549988 0 1.16999 0 1.92777V11.5722C0 12.33 0.62 12.95 1.37778 12.95H12.4C13.1578 12.95 13.7778 12.33 13.7778 11.5722V1.92777C13.7778 1.16999 13.1578 0.549988 12.4 0.549988ZM12.4 11.5722H1.37778V1.92777H12.4V11.5722Z" fill="#4A4A4A"/>
<path id="Vector_2" fill-rule="evenodd" clip-rule="evenodd" d="M11.9938 5.66157L11.0156 4.68335L8.83183 6.86713L7.86049 5.88891L6.88916 6.86024L8.83183 8.81668L11.9938 5.66157Z" fill="#4A4A4A"/>
<path id="Vector_3" d="M5.51085 3.30554H2.06641V4.68332H5.51085V3.30554Z" fill="#4A4A4A"/>
<path id="Vector_4" d="M5.51085 6.0611H2.06641V7.43887H5.51085V6.0611Z" fill="#4A4A4A"/>
<path id="Vector_5" d="M5.51085 8.81659H2.06641V10.1944H5.51085V8.81659Z" fill="#4A4A4A"/>
</g>
</svg>
