<svg width="14" height="19" viewBox="0 0 14 19" fill="none" xmlns="http://www.w3.org/2000/svg">
<g id="Group">
<path id="Vector" d="M4.42852 12.1667L6.14279 13.9444L9.57131 10.3889M7.85705 1.50077C7.7752 1.5 7.68329 1.5 7.57823 1.5H3.74299C2.78291 1.5 2.30251 1.5 1.93581 1.69377C1.61325 1.86421 1.3512 2.13598 1.18684 2.47049C1 2.85077 1 3.34897 1 4.34462V14.6557C1 15.6514 1 16.1489 1.18684 16.5292C1.3512 16.8637 1.61325 17.136 1.93581 17.3064C2.30216 17.5 2.78198 17.5 3.7402 17.5L10.2597 17.5C11.2179 17.5 11.697 17.5 12.0633 17.3064C12.3859 17.136 12.6488 16.8637 12.8132 16.5292C12.9998 16.1493 12.9998 15.6524 12.9998 14.6587V7.12283C12.9998 7.01374 12.9998 6.91832 12.999 6.83333M7.85705 1.50077C8.10188 1.50308 8.25676 1.51231 8.40462 1.54912C8.57953 1.59267 8.74662 1.66468 8.9 1.76215C9.07294 1.87206 9.22144 2.02606 9.51774 2.33333L12.1967 5.11154C12.4932 5.41901 12.6406 5.57232 12.7466 5.75173C12.8406 5.91079 12.9101 6.08423 12.9521 6.26562C12.9876 6.4189 12.9967 6.57956 12.999 6.83333M7.85705 1.50077V3.98889C7.85705 4.98454 7.85705 5.48201 8.04389 5.8623C8.20824 6.19681 8.4703 6.46931 8.79286 6.63976C9.1592 6.83333 9.63902 6.83333 10.5972 6.83333H12.999M12.999 6.83333H13" stroke="#4A4A4A" stroke-width="1.5" stroke-linecap="round" stroke-linejoin="round"/>
</g>
</svg>
