<svg width="18" height="18" viewBox="0 0 18 18" fill="none" xmlns="http://www.w3.org/2000/svg">
<mask id="mask0_1_11721" style="mask-type:luminance" maskUnits="userSpaceOnUse" x="0" y="0" width="18" height="18">
<rect width="18" height="18" fill="white"/>
</mask>
<g mask="url(#mask0_1_11721)">
<path fill-rule="evenodd" clip-rule="evenodd" d="M11.1886 0C12.3946 0 12.9976 0.8208 12.9976 1.7613C12.9976 2.9358 11.95 4.0221 10.5865 4.0221C9.44441 4.0221 8.77841 3.3471 8.80991 2.2311C8.80991 1.2924 9.60281 0 11.1886 0ZM7.47796 17.9999C6.52576 17.9999 5.82826 17.4131 6.49426 14.8283L7.58686 10.2455C7.77676 9.51295 7.80826 9.21865 7.58686 9.21865C7.30156 9.21865 6.06676 9.72445 5.33506 10.2239L4.85986 9.43195C7.17466 7.46455 9.83776 6.31165 10.9808 6.31165C11.9321 6.31165 12.0905 7.45735 11.6153 9.21865L10.3634 14.0354C10.142 14.8859 10.2365 15.1793 10.4588 15.1793C10.7441 15.1793 11.6801 14.8265 12.5999 14.093L13.1399 14.8256C10.8881 17.1179 8.42836 17.9999 7.47796 17.9999Z" fill="#9E9E9E"/>
</g>
</svg>
