<svg width="105" height="29" viewBox="0 0 105 29" fill="none" xmlns="http://www.w3.org/2000/svg">
<g id="Group 2022">
<path id="Subtract" fill-rule="evenodd" clip-rule="evenodd" d="M10.131 21.4689C10.131 22.4266 10.9066 23.1672 11.8634 23.123C12.8201 23.0787 13.5957 22.2665 13.5957 21.3087V16.7526L18.7355 15.6433V28.6503C17.6511 28.8792 16.5234 29 15.3659 29C6.87953 29 0 22.5081 0 14.5C0 8.22648 4.22201 2.88349 10.131 0.863191V14.1487L4.06074 15.4589C3.1761 15.6498 2.59474 16.5256 2.76225 17.415C2.92976 18.3043 3.7827 18.8705 4.66734 18.6796L10.131 17.5004V21.4689ZM22.1979 27.4915C27.2559 25.1183 30.7317 20.1922 30.7317 14.5C30.7317 6.49187 23.8522 0 15.3659 0C14.7672 0 14.1765 0.0323082 13.5957 0.0951779V13.401L18.7355 12.2917V7.68574C18.7355 6.72861 19.5106 5.91687 20.4667 5.87266C21.4229 5.82846 22.1979 6.56854 22.1979 7.52567V11.5444L25.4998 10.8318C26.3844 10.6408 27.2374 11.207 27.4049 12.0964C27.5724 12.9858 26.991 13.8616 26.1064 14.0525L22.1979 14.896V27.4915Z" fill="#FF5D25"/>
<g id="ohoh">
<path d="M43.0658 24.1316C41.707 24.1316 40.4736 23.9049 39.3656 23.4514C38.2785 22.9783 37.4214 22.3278 36.7942 21.4998C36.1671 20.6719 35.8535 19.7355 35.8535 18.6907V14.5213C35.8535 13.4568 36.1566 12.4909 36.7629 11.6235C37.39 10.7561 38.2472 10.076 39.3342 9.58318C40.4213 9.07064 41.6652 8.81436 43.0658 8.81436C44.4665 8.81436 45.7103 9.07064 46.7974 9.58318C47.9054 10.076 48.7625 10.7561 49.3687 11.6235C49.9959 12.4909 50.3095 13.4568 50.3095 14.5213V18.6907C50.3095 19.7355 49.9854 20.6719 49.3374 21.4998C48.7102 22.3278 47.8426 22.9783 46.7347 23.4514C45.6476 23.9049 44.4246 24.1316 43.0658 24.1316ZM43.0658 20.9676C44.1111 20.9676 44.9264 20.7409 45.5117 20.2875C46.118 19.8341 46.4211 19.223 46.4211 18.4541V14.6988C46.4211 13.8905 46.118 13.24 45.5117 12.7472C44.9264 12.2346 44.1111 11.9783 43.0658 11.9783C42.0415 11.9783 41.2261 12.2346 40.6199 12.7472C40.0136 13.24 39.7105 13.8905 39.7105 14.6988V18.4541C39.7105 19.223 40.0136 19.8341 40.6199 20.2875C41.2261 20.7409 42.0415 20.9676 43.0658 20.9676Z" fill="#2F2F2F"/>
<path d="M54.3406 5.7391C54.3406 4.83229 54.6751 4.13247 55.3441 3.63964C56.0131 3.14681 56.9747 2.90039 58.229 2.90039V10.5886C57.9572 10.8645 57.7064 11.18 57.4764 11.5348L57.6646 11.6531C59.107 9.7606 60.9467 8.81436 63.1835 8.81436C64.2497 8.81436 65.1904 9.04107 66.0057 9.49447C66.821 9.94788 67.4482 10.5688 67.8872 11.3574C68.3471 12.1459 68.5771 13.033 68.5771 14.0187V21.8842C68.5771 22.6728 68.253 23.2445 67.605 23.5993C66.9569 23.9541 65.9744 24.1316 64.6573 24.1316V14.5509C64.6573 13.8018 64.4169 13.1907 63.9361 12.7176C63.4762 12.2445 62.7968 12.0079 61.8979 12.0079C60.8317 12.0079 59.9537 12.3233 59.2638 12.9541C58.5739 13.5653 58.229 14.3341 58.229 15.2606V21.8842C58.229 22.6728 57.905 23.2445 57.2569 23.5993C56.6089 23.9541 55.6368 24.1316 54.3406 24.1316V5.7391Z" fill="#2F2F2F"/>
<path d="M79.4886 24.1316C78.1298 24.1316 76.8964 23.9049 75.7884 23.4514C74.7013 22.9783 73.8442 22.3278 73.217 21.4998C72.5899 20.6719 72.2763 19.7355 72.2763 18.6907V14.5213C72.2763 13.4568 72.5794 12.4909 73.1857 11.6235C73.8128 10.7561 74.67 10.076 75.757 9.58318C76.8441 9.07064 78.088 8.81436 79.4886 8.81436C80.8892 8.81436 82.1331 9.07064 83.2202 9.58318C84.3282 10.076 85.1853 10.7561 85.7915 11.6235C86.4187 12.4909 86.7323 13.4568 86.7323 14.5213V18.6907C86.7323 19.7355 86.4082 20.6719 85.7602 21.4998C85.133 22.3278 84.2654 22.9783 83.1575 23.4514C82.0704 23.9049 80.8474 24.1316 79.4886 24.1316ZM79.4886 20.9676C80.5339 20.9676 81.3492 20.7409 81.9345 20.2875C82.5408 19.8341 82.8439 19.223 82.8439 18.4541V14.6988C82.8439 13.8905 82.5408 13.24 81.9345 12.7472C81.3492 12.2346 80.5339 11.9783 79.4886 11.9783C78.4642 11.9783 77.6489 12.2346 77.0427 12.7472C76.4364 13.24 76.1333 13.8905 76.1333 14.6988V18.4541C76.1333 19.223 76.4364 19.8341 77.0427 20.2875C77.6489 20.7409 78.4642 20.9676 79.4886 20.9676Z" fill="#2F2F2F"/>
<path d="M90.7634 5.7391C90.7634 4.83229 91.0979 4.13247 91.7669 3.63964C92.4358 3.14681 93.3975 2.90039 94.6518 2.90039V10.5886C94.38 10.8645 94.1292 11.18 93.8992 11.5348L94.0874 11.6531C95.5298 9.7606 97.3695 8.81436 99.6063 8.81436C100.672 8.81436 101.613 9.04107 102.429 9.49447C103.244 9.94788 103.871 10.5688 104.31 11.3574C104.77 12.1459 105 13.033 105 14.0187V21.8842C105 22.6728 104.676 23.2445 104.028 23.5993C103.38 23.9541 102.397 24.1316 101.08 24.1316V14.5509C101.08 13.8018 100.84 13.1907 100.359 12.7176C99.899 12.2445 99.2196 12.0079 98.3207 12.0079C97.2545 12.0079 96.3765 12.3233 95.6866 12.9541C94.9967 13.5653 94.6518 14.3341 94.6518 15.2606V21.8842C94.6518 22.6728 94.3278 23.2445 93.6797 23.5993C93.0316 23.9541 92.0596 24.1316 90.7634 24.1316V5.7391Z" fill="#2F2F2F"/>
</g>
</g>
</svg>
