<svg width="84" height="84" viewBox="0 0 84 84" fill="none" xmlns="http://www.w3.org/2000/svg">
<circle cx="42" cy="42" r="42" fill="#FC003C"/>
<mask id="mask0_643_23573" style="mask-type:alpha" maskUnits="userSpaceOnUse" x="14" y="14" width="55" height="55">
<rect x="14" y="14" width="55" height="55" fill="#D9D9D9"/>
</mask>
<g mask="url(#mask0_643_23573)">
<path d="M41.5 64.4168L40.9271 57.5418H40.3542C34.9306 57.5418 30.3281 55.6512 26.5469 51.87C22.7656 48.0887 20.875 43.4863 20.875 38.0627C20.875 32.6391 22.7656 28.0366 26.5469 24.2554C30.3281 20.4741 34.9306 18.5835 40.3542 18.5835C43.066 18.5835 45.5964 19.0896 47.9453 20.1017C50.2943 21.1139 52.3568 22.508 54.1328 24.284C55.9089 26.0601 57.3029 28.1226 58.3151 30.4715C59.3273 32.8205 59.8333 35.3509 59.8333 38.0627C59.8333 40.9272 59.3655 43.6772 58.4297 46.3127C57.4939 48.9481 56.2144 51.3925 54.5911 53.646C52.9679 55.8995 51.0391 57.9429 48.8047 59.7762C46.5703 61.6095 44.1354 63.1564 41.5 64.4168ZM46.0833 56.0522C48.7951 53.7606 51.0009 51.0774 52.7005 48.0028C54.4002 44.9281 55.25 41.6147 55.25 38.0627C55.25 33.8995 53.8082 30.376 50.9245 27.4923C48.0408 24.6087 44.5174 23.1668 40.3542 23.1668C36.191 23.1668 32.6675 24.6087 29.7839 27.4923C26.9002 30.376 25.4583 33.8995 25.4583 38.0627C25.4583 42.2259 26.9002 45.7493 29.7839 48.633C32.6675 51.5167 36.191 52.9585 40.3542 52.9585H46.0833V56.0522ZM40.2969 50.6095C40.9462 50.6095 41.5 50.3804 41.9583 49.922C42.4167 49.4637 42.6458 48.9099 42.6458 48.2606C42.6458 47.6113 42.4167 47.0575 41.9583 46.5991C41.5 46.1408 40.9462 45.9116 40.2969 45.9116C39.6476 45.9116 39.0937 46.1408 38.6354 46.5991C38.1771 47.0575 37.9479 47.6113 37.9479 48.2606C37.9479 48.9099 38.1771 49.4637 38.6354 49.922C39.0937 50.3804 39.6476 50.6095 40.2969 50.6095ZM38.6354 43.3335H42.0729C42.0729 42.1877 42.1875 41.3856 42.4167 40.9272C42.6458 40.4689 43.3715 39.6286 44.5938 38.4064C45.2812 37.7189 45.8542 36.9741 46.3125 36.172C46.7708 35.37 47 34.5106 47 33.5939C47 31.646 46.3411 30.1851 45.0234 29.2111C43.7057 28.2371 42.1493 27.7502 40.3542 27.7502C38.6736 27.7502 37.2604 28.218 36.1146 29.1538C34.9687 30.0896 34.1667 31.2259 33.7083 32.5627L36.9167 33.8231C37.1076 33.1738 37.4705 32.534 38.0052 31.9038C38.5399 31.2736 39.3229 30.9585 40.3542 30.9585C41.3854 30.9585 42.1589 31.245 42.6745 31.8179C43.1901 32.3908 43.4479 33.021 43.4479 33.7085C43.4479 34.3578 43.2569 34.9403 42.875 35.4559C42.4931 35.9715 42.0347 36.4967 41.5 37.0314C40.1632 38.1772 39.3516 39.0844 39.0651 39.7528C38.7786 40.4212 38.6354 41.6147 38.6354 43.3335Z" fill="white"/>
</g>
</svg>
